<mxfile host="app.diagrams.net" modified="2024-06-04T04:26:35.876Z" agent="Mozilla/5.0 (Windows NT 10.0; Win64; x64) AppleWebKit/537.36 (KHTML, like Gecko) Chrome/125.0.0.0 Safari/537.36" version="24.4.9" etag="QhA75Mh1jvKog2WbSP85" type="github">
  <diagram name="Страница — 1" id="KY3M6PVuCXPDa0Z-uJ3M">
    <mxGraphModel>
      <root>
        <mxCell id="0" />
        <mxCell id="1" parent="0" />
      </root>
    </mxGraphModel>
  </diagram>
</mxfile>
